<mxfile host="app.diagrams.net" modified="2020-12-29T10:10:48.797Z" agent="5.0 (Macintosh; Intel Mac OS X 10_15_3) AppleWebKit/537.36 (KHTML, like Gecko) Chrome/87.0.4280.88 Safari/537.36" etag="ozLZbHzqBQNAe09k-amZ" version="14.1.1" type="github">
  <diagram id="yVQXykmnmnmi0eYwBmyi" name="第 1 页">
    <mxGraphModel dx="1678" dy="907" grid="1" gridSize="10" guides="1" tooltips="1" connect="1" arrows="1" fold="1" page="1" pageScale="1" pageWidth="1920" pageHeight="1200" math="0" shadow="0">
      <root>
        <mxCell id="0" />
        <mxCell id="1" parent="0" />
        <mxCell id="-mlGXoupMx55JG4DXBJS-1" value="&lt;font&gt;&lt;span style=&quot;font-size: 20px&quot;&gt;CPU High &amp;amp;&amp;nbsp;&lt;/span&gt;&lt;span style=&quot;font-size: 20px&quot;&gt;Lag Growth Rate&amp;nbsp;&lt;/span&gt;&lt;span style=&quot;font-size: 20px&quot;&gt;&amp;amp;&lt;/span&gt;&lt;br&gt;&lt;span style=&quot;color: rgb(23 , 43 , 77) ; background-color: rgb(255 , 255 , 255)&quot;&gt;&lt;font style=&quot;font-size: 20px&quot;&gt;Cgroup Throttle&lt;/font&gt;&lt;/span&gt;&lt;br&gt;&lt;/font&gt;" style="rounded=1;whiteSpace=wrap;html=1;" vertex="1" parent="1">
          <mxGeometry x="260" y="280" width="330" height="90" as="geometry" />
        </mxCell>
        <mxCell id="-mlGXoupMx55JG4DXBJS-2" value="&lt;font style=&quot;font-size: 20px&quot;&gt;TP &amp;lt;= Source&amp;nbsp;Parallelism&lt;/font&gt;" style="rounded=1;whiteSpace=wrap;html=1;" vertex="1" parent="1">
          <mxGeometry x="540" y="440" width="260" height="60" as="geometry" />
        </mxCell>
        <mxCell id="-mlGXoupMx55JG4DXBJS-3" value="" style="edgeStyle=segmentEdgeStyle;endArrow=classic;html=1;exitX=1;exitY=0.5;exitDx=0;exitDy=0;entryX=0.5;entryY=0;entryDx=0;entryDy=0;" edge="1" parent="1" source="-mlGXoupMx55JG4DXBJS-1" target="-mlGXoupMx55JG4DXBJS-2">
          <mxGeometry width="50" height="50" relative="1" as="geometry">
            <mxPoint x="610" y="624" as="sourcePoint" />
            <mxPoint x="660" y="574" as="targetPoint" />
          </mxGeometry>
        </mxCell>
        <mxCell id="-mlGXoupMx55JG4DXBJS-4" value="&lt;font style=&quot;font-size: 15px&quot;&gt;Yes&lt;/font&gt;" style="text;html=1;strokeColor=#666666;fillColor=#f5f5f5;align=center;verticalAlign=middle;whiteSpace=wrap;rounded=0;fontColor=#333333;" vertex="1" parent="1">
          <mxGeometry x="680" y="370" width="40" height="30" as="geometry" />
        </mxCell>
        <mxCell id="-mlGXoupMx55JG4DXBJS-6" value="&lt;span style=&quot;color: rgb(24 , 32 , 38) ; background-color: rgb(255 , 255 , 255)&quot;&gt;&lt;font style=&quot;font-size: 20px&quot;&gt;Increase&lt;/font&gt;&lt;font style=&quot;font-size: 14px&quot;&gt;&amp;nbsp;&lt;/font&gt;&lt;font style=&quot;font-size: 20px&quot;&gt;Vcores&lt;/font&gt;&lt;/span&gt;" style="rounded=1;whiteSpace=wrap;html=1;" vertex="1" parent="1">
          <mxGeometry x="820" y="560" width="210" height="60" as="geometry" />
        </mxCell>
        <mxCell id="-mlGXoupMx55JG4DXBJS-7" value="" style="edgeStyle=segmentEdgeStyle;endArrow=classic;html=1;exitX=1;exitY=0.5;exitDx=0;exitDy=0;" edge="1" parent="1" source="-mlGXoupMx55JG4DXBJS-2" target="-mlGXoupMx55JG4DXBJS-6">
          <mxGeometry width="50" height="50" relative="1" as="geometry">
            <mxPoint x="860" y="380" as="sourcePoint" />
            <mxPoint x="960" y="490" as="targetPoint" />
          </mxGeometry>
        </mxCell>
        <mxCell id="-mlGXoupMx55JG4DXBJS-8" value="&lt;font style=&quot;font-size: 15px&quot;&gt;Yes&lt;/font&gt;" style="text;html=1;strokeColor=#666666;fillColor=#f5f5f5;align=center;verticalAlign=middle;whiteSpace=wrap;rounded=0;fontColor=#333333;" vertex="1" parent="1">
          <mxGeometry x="850" y="430" width="40" height="30" as="geometry" />
        </mxCell>
        <mxCell id="-mlGXoupMx55JG4DXBJS-10" value="&lt;font style=&quot;font-size: 20px&quot;&gt;CPU Low &amp;amp; High Lag&lt;/font&gt;" style="rounded=1;whiteSpace=wrap;html=1;" vertex="1" parent="1">
          <mxGeometry x="60" y="444" width="220" height="60" as="geometry" />
        </mxCell>
        <mxCell id="-mlGXoupMx55JG4DXBJS-11" value="" style="edgeStyle=segmentEdgeStyle;endArrow=classic;html=1;exitX=0;exitY=0.5;exitDx=0;exitDy=0;" edge="1" parent="1" source="-mlGXoupMx55JG4DXBJS-1" target="-mlGXoupMx55JG4DXBJS-10">
          <mxGeometry width="50" height="50" relative="1" as="geometry">
            <mxPoint x="490" y="344" as="sourcePoint" />
            <mxPoint x="590" y="454" as="targetPoint" />
          </mxGeometry>
        </mxCell>
        <mxCell id="-mlGXoupMx55JG4DXBJS-12" value="&lt;font style=&quot;font-size: 15px&quot;&gt;No&lt;/font&gt;" style="text;html=1;strokeColor=#666666;fillColor=#f5f5f5;align=center;verticalAlign=middle;whiteSpace=wrap;rounded=0;fontColor=#333333;" vertex="1" parent="1">
          <mxGeometry x="120" y="364" width="40" height="30" as="geometry" />
        </mxCell>
        <mxCell id="-mlGXoupMx55JG4DXBJS-13" value="&lt;span style=&quot;font-size: 20px&quot;&gt;Thread Dump&lt;/span&gt;" style="rounded=1;whiteSpace=wrap;html=1;" vertex="1" parent="1">
          <mxGeometry x="85" y="554" width="170" height="60" as="geometry" />
        </mxCell>
        <mxCell id="-mlGXoupMx55JG4DXBJS-14" value="" style="endArrow=classic;html=1;" edge="1" parent="1" source="-mlGXoupMx55JG4DXBJS-10" target="-mlGXoupMx55JG4DXBJS-13">
          <mxGeometry width="50" height="50" relative="1" as="geometry">
            <mxPoint x="110" y="714" as="sourcePoint" />
            <mxPoint x="160" y="664" as="targetPoint" />
          </mxGeometry>
        </mxCell>
        <mxCell id="-mlGXoupMx55JG4DXBJS-15" value="&lt;div&gt;&lt;span style=&quot;font-size: 20px&quot;&gt;Single CPU Hotspot&lt;/span&gt;&lt;/div&gt;" style="rounded=1;whiteSpace=wrap;html=1;" vertex="1" parent="1">
          <mxGeometry x="66.25" y="634" width="207.5" height="60" as="geometry" />
        </mxCell>
        <mxCell id="-mlGXoupMx55JG4DXBJS-16" value="" style="endArrow=classic;html=1;exitX=0.5;exitY=1;exitDx=0;exitDy=0;" edge="1" parent="1" source="-mlGXoupMx55JG4DXBJS-13" target="-mlGXoupMx55JG4DXBJS-15">
          <mxGeometry width="50" height="50" relative="1" as="geometry">
            <mxPoint x="220" y="624" as="sourcePoint" />
            <mxPoint x="220" y="674" as="targetPoint" />
          </mxGeometry>
        </mxCell>
        <mxCell id="-mlGXoupMx55JG4DXBJS-18" value="&lt;span style=&quot;color: rgb(24 , 32 , 38) ; background-color: rgb(255 , 255 , 255)&quot;&gt;&lt;font style=&quot;font-size: 20px&quot;&gt;Increase&lt;/font&gt;&lt;/span&gt;&lt;span style=&quot;color: rgb(24 , 32 , 38) ; font-size: 14px ; background-color: rgb(255 , 255 , 255)&quot;&gt;&amp;nbsp;&lt;/span&gt;&lt;span style=&quot;font-size: 20px&quot;&gt;Parallelism &amp;amp;&amp;nbsp;&lt;br&gt;&lt;/span&gt;&lt;font style=&quot;font-size: 20px&quot;&gt;VCoves&amp;nbsp;&lt;/font&gt;&lt;span style=&quot;font-size: 20px&quot;&gt;&lt;font style=&quot;font-size: 20px&quot;&gt;Cut In Half&lt;/font&gt;&lt;br&gt;&lt;/span&gt;" style="rounded=1;whiteSpace=wrap;html=1;" vertex="1" parent="1">
          <mxGeometry x="40" y="754" width="260" height="80" as="geometry" />
        </mxCell>
        <mxCell id="-mlGXoupMx55JG4DXBJS-19" value="" style="endArrow=classic;html=1;exitX=0.5;exitY=1;exitDx=0;exitDy=0;" edge="1" parent="1" source="-mlGXoupMx55JG4DXBJS-15" target="-mlGXoupMx55JG4DXBJS-18">
          <mxGeometry width="50" height="50" relative="1" as="geometry">
            <mxPoint x="340" y="664" as="sourcePoint" />
            <mxPoint x="340" y="714" as="targetPoint" />
          </mxGeometry>
        </mxCell>
        <mxCell id="-mlGXoupMx55JG4DXBJS-20" value="&lt;font style=&quot;font-size: 15px&quot;&gt;Yes&lt;/font&gt;" style="text;html=1;strokeColor=#666666;fillColor=#f5f5f5;align=center;verticalAlign=middle;whiteSpace=wrap;rounded=0;fontColor=#333333;" vertex="1" parent="1">
          <mxGeometry x="120" y="709" width="40" height="30" as="geometry" />
        </mxCell>
        <mxCell id="-mlGXoupMx55JG4DXBJS-21" value="&lt;font style=&quot;font-size: 15px&quot;&gt;Yes&lt;/font&gt;" style="text;html=1;strokeColor=#666666;fillColor=#f5f5f5;align=center;verticalAlign=middle;whiteSpace=wrap;rounded=0;fontColor=#333333;" vertex="1" parent="1">
          <mxGeometry x="110" y="514" width="40" height="30" as="geometry" />
        </mxCell>
        <mxCell id="-mlGXoupMx55JG4DXBJS-23" value="" style="endArrow=classic;html=1;entryX=0.5;entryY=0;entryDx=0;entryDy=0;" edge="1" parent="1">
          <mxGeometry width="50" height="50" relative="1" as="geometry">
            <mxPoint x="1845" y="170" as="sourcePoint" />
            <mxPoint x="1845" y="240" as="targetPoint" />
          </mxGeometry>
        </mxCell>
        <mxCell id="-mlGXoupMx55JG4DXBJS-25" value="" style="edgeStyle=orthogonalEdgeStyle;rounded=0;orthogonalLoop=1;jettySize=auto;html=1;" edge="1" parent="1">
          <mxGeometry relative="1" as="geometry">
            <mxPoint x="1845" y="180" as="sourcePoint" />
            <mxPoint x="1845" y="240" as="targetPoint" />
          </mxGeometry>
        </mxCell>
        <mxCell id="-mlGXoupMx55JG4DXBJS-24" value="" style="shape=umlActor;verticalLabelPosition=bottom;verticalAlign=top;html=1;outlineConnect=0;" vertex="1" parent="1">
          <mxGeometry x="1830" y="110" width="30" height="60" as="geometry" />
        </mxCell>
        <mxCell id="-mlGXoupMx55JG4DXBJS-26" value="&lt;span style=&quot;color: rgb(24 , 32 , 38) ; background-color: rgb(255 , 255 , 255)&quot;&gt;&lt;font style=&quot;font-size: 20px&quot;&gt;Increase&lt;/font&gt;&lt;font style=&quot;font-size: 14px&quot;&gt;&amp;nbsp;&lt;/font&gt;&lt;/span&gt;&lt;span style=&quot;font-size: 20px&quot;&gt;Parallelism&lt;/span&gt;" style="rounded=1;whiteSpace=wrap;html=1;" vertex="1" parent="1">
          <mxGeometry x="380" y="560" width="210" height="60" as="geometry" />
        </mxCell>
        <mxCell id="-mlGXoupMx55JG4DXBJS-27" value="" style="edgeStyle=segmentEdgeStyle;endArrow=classic;html=1;exitX=0;exitY=0.5;exitDx=0;exitDy=0;" edge="1" parent="1" source="-mlGXoupMx55JG4DXBJS-2" target="-mlGXoupMx55JG4DXBJS-26">
          <mxGeometry width="50" height="50" relative="1" as="geometry">
            <mxPoint x="680" y="670" as="sourcePoint" />
            <mxPoint x="730" y="620" as="targetPoint" />
          </mxGeometry>
        </mxCell>
        <mxCell id="-mlGXoupMx55JG4DXBJS-28" value="&lt;font style=&quot;font-size: 15px&quot;&gt;No&lt;/font&gt;" style="text;html=1;strokeColor=#666666;fillColor=#f5f5f5;align=center;verticalAlign=middle;whiteSpace=wrap;rounded=0;fontColor=#333333;" vertex="1" parent="1">
          <mxGeometry x="440" y="430" width="40" height="30" as="geometry" />
        </mxCell>
        <mxCell id="-mlGXoupMx55JG4DXBJS-30" value="" style="endArrow=classic;html=1;exitX=0.5;exitY=1;exitDx=0;exitDy=0;entryX=0.5;entryY=0;entryDx=0;entryDy=0;" edge="1" parent="1" source="-mlGXoupMx55JG4DXBJS-6" target="-mlGXoupMx55JG4DXBJS-40">
          <mxGeometry width="50" height="50" relative="1" as="geometry">
            <mxPoint x="1100" y="650" as="sourcePoint" />
            <mxPoint x="924.9999999999995" y="679" as="targetPoint" />
          </mxGeometry>
        </mxCell>
        <mxCell id="-mlGXoupMx55JG4DXBJS-31" value="&lt;font color=&quot;#182026&quot;&gt;&lt;span style=&quot;font-size: 20px ; background-color: rgb(255 , 255 , 255)&quot;&gt;Rebalance &amp;amp;&amp;nbsp;&lt;/span&gt;&lt;/font&gt;&lt;span style=&quot;color: rgb(24 , 32 , 38) ; background-color: rgb(255 , 255 , 255)&quot;&gt;&lt;font style=&quot;font-size: 20px&quot;&gt;Increase&lt;/font&gt;&lt;font style=&quot;font-size: 14px&quot;&gt;&amp;nbsp;&lt;/font&gt;&lt;/span&gt;&lt;span style=&quot;font-size: 20px&quot;&gt;Parallelism&lt;/span&gt;" style="rounded=1;whiteSpace=wrap;html=1;" vertex="1" parent="1">
          <mxGeometry x="2720" y="799" width="220" height="70" as="geometry" />
        </mxCell>
        <mxCell id="-mlGXoupMx55JG4DXBJS-33" value="" style="endArrow=classic;html=1;entryX=0;entryY=0.5;entryDx=0;entryDy=0;exitX=1;exitY=0.5;exitDx=0;exitDy=0;" edge="1" parent="1" source="-mlGXoupMx55JG4DXBJS-57" target="-mlGXoupMx55JG4DXBJS-31">
          <mxGeometry width="50" height="50" relative="1" as="geometry">
            <mxPoint x="2440" y="870" as="sourcePoint" />
            <mxPoint x="2020" y="910" as="targetPoint" />
          </mxGeometry>
        </mxCell>
        <mxCell id="-mlGXoupMx55JG4DXBJS-34" value="&lt;font style=&quot;font-size: 15px&quot;&gt;Yes&lt;/font&gt;" style="text;html=1;strokeColor=#666666;fillColor=#f5f5f5;align=center;verticalAlign=middle;whiteSpace=wrap;rounded=0;fontColor=#333333;" vertex="1" parent="1">
          <mxGeometry x="2664" y="794.5" width="40" height="30" as="geometry" />
        </mxCell>
        <mxCell id="-mlGXoupMx55JG4DXBJS-35" value="场景1" style="ellipse;whiteSpace=wrap;html=1;aspect=fixed;fillColor=#fff2cc;strokeColor=#d6b656;" vertex="1" parent="1">
          <mxGeometry x="140" y="841" width="49" height="49" as="geometry" />
        </mxCell>
        <mxCell id="-mlGXoupMx55JG4DXBJS-36" value="场景2" style="ellipse;whiteSpace=wrap;html=1;aspect=fixed;fillColor=#fff2cc;strokeColor=#d6b656;" vertex="1" parent="1">
          <mxGeometry x="460.5" y="634" width="49" height="49" as="geometry" />
        </mxCell>
        <mxCell id="-mlGXoupMx55JG4DXBJS-37" value="场景3" style="ellipse;whiteSpace=wrap;html=1;aspect=fixed;fillColor=#fff2cc;strokeColor=#d6b656;" vertex="1" parent="1">
          <mxGeometry x="1060" y="565" width="49" height="49" as="geometry" />
        </mxCell>
        <mxCell id="-mlGXoupMx55JG4DXBJS-38" value="场景4" style="ellipse;whiteSpace=wrap;html=1;aspect=fixed;fillColor=#fff2cc;strokeColor=#d6b656;" vertex="1" parent="1">
          <mxGeometry x="2805.5" y="740" width="49" height="49" as="geometry" />
        </mxCell>
        <mxCell id="-mlGXoupMx55JG4DXBJS-40" value="&lt;font&gt;&lt;span style=&quot;font-size: 20px&quot;&gt;CPU High &amp;amp;&amp;nbsp;&lt;/span&gt;&lt;span style=&quot;font-size: 20px&quot;&gt;Lag Growth Rate&amp;nbsp;&lt;/span&gt;&lt;span style=&quot;font-size: 20px&quot;&gt;&amp;amp;&lt;/span&gt;&lt;br&gt;&lt;span style=&quot;color: rgb(23 , 43 , 77) ; background-color: rgb(255 , 255 , 255)&quot;&gt;&lt;font style=&quot;font-size: 20px&quot;&gt;Cgroup Throttle&lt;/font&gt;&lt;/span&gt;&lt;br&gt;&lt;/font&gt;" style="rounded=1;whiteSpace=wrap;html=1;" vertex="1" parent="1">
          <mxGeometry x="760" y="679" width="330" height="90" as="geometry" />
        </mxCell>
        <mxCell id="-mlGXoupMx55JG4DXBJS-42" value="&lt;font&gt;&lt;div&gt;&lt;span style=&quot;font-size: 20px&quot;&gt;Resource limit reached?&lt;/span&gt;&lt;/div&gt;&lt;/font&gt;" style="rounded=1;whiteSpace=wrap;html=1;" vertex="1" parent="1">
          <mxGeometry x="1720" y="240" width="250" height="70" as="geometry" />
        </mxCell>
        <mxCell id="-mlGXoupMx55JG4DXBJS-43" value="&lt;font&gt;&lt;span style=&quot;font-size: 20px&quot;&gt;CPU High &amp;amp;&amp;nbsp;&lt;/span&gt;&lt;span style=&quot;font-size: 20px&quot;&gt;Lag Growth Rate&amp;nbsp;&lt;/span&gt;&lt;span style=&quot;font-size: 20px&quot;&gt;&amp;amp;&lt;/span&gt;&lt;br&gt;&lt;span style=&quot;color: rgb(23 , 43 , 77) ; background-color: rgb(255 , 255 , 255)&quot;&gt;&lt;font style=&quot;font-size: 20px&quot;&gt;Cgroup Throttle?&lt;/font&gt;&lt;/span&gt;&lt;br&gt;&lt;/font&gt;" style="rounded=1;whiteSpace=wrap;html=1;" vertex="1" parent="1">
          <mxGeometry x="1680" y="370" width="330" height="90" as="geometry" />
        </mxCell>
        <mxCell id="-mlGXoupMx55JG4DXBJS-44" value="" style="endArrow=classic;html=1;exitX=0.5;exitY=1;exitDx=0;exitDy=0;entryX=0.5;entryY=0;entryDx=0;entryDy=0;" edge="1" parent="1" source="-mlGXoupMx55JG4DXBJS-42" target="-mlGXoupMx55JG4DXBJS-43">
          <mxGeometry width="50" height="50" relative="1" as="geometry">
            <mxPoint x="1940" y="600" as="sourcePoint" />
            <mxPoint x="1990" y="550" as="targetPoint" />
          </mxGeometry>
        </mxCell>
        <mxCell id="-mlGXoupMx55JG4DXBJS-46" value="" style="edgeStyle=elbowEdgeStyle;elbow=vertical;endArrow=classic;html=1;entryX=0.5;entryY=0;entryDx=0;entryDy=0;" edge="1" parent="1" target="-mlGXoupMx55JG4DXBJS-48">
          <mxGeometry width="50" height="50" relative="1" as="geometry">
            <mxPoint x="1840" y="460" as="sourcePoint" />
            <mxPoint x="2010" y="540" as="targetPoint" />
            <Array as="points">
              <mxPoint x="1920" y="500" />
            </Array>
          </mxGeometry>
        </mxCell>
        <mxCell id="-mlGXoupMx55JG4DXBJS-47" value="" style="edgeStyle=elbowEdgeStyle;elbow=vertical;endArrow=classic;html=1;entryX=0.5;entryY=0;entryDx=0;entryDy=0;" edge="1" parent="1" target="-mlGXoupMx55JG4DXBJS-65">
          <mxGeometry width="50" height="50" relative="1" as="geometry">
            <mxPoint x="1840" y="460" as="sourcePoint" />
            <mxPoint x="1680" y="540" as="targetPoint" />
            <Array as="points">
              <mxPoint x="1760" y="500" />
            </Array>
          </mxGeometry>
        </mxCell>
        <mxCell id="-mlGXoupMx55JG4DXBJS-48" value="&lt;font style=&quot;font-size: 20px&quot;&gt;TP &amp;lt;= Source&amp;nbsp;Parallelism?&lt;/font&gt;" style="rounded=1;whiteSpace=wrap;html=1;" vertex="1" parent="1">
          <mxGeometry x="1990" y="550" width="260" height="60" as="geometry" />
        </mxCell>
        <mxCell id="-mlGXoupMx55JG4DXBJS-49" value="&lt;div&gt;&lt;font color=&quot;#182026&quot;&gt;&lt;span style=&quot;font-size: 20px&quot;&gt;Already added Vcores?&lt;/span&gt;&lt;/font&gt;&lt;/div&gt;" style="rounded=1;whiteSpace=wrap;html=1;" vertex="1" parent="1">
          <mxGeometry x="2230" y="645" width="230" height="60" as="geometry" />
        </mxCell>
        <mxCell id="-mlGXoupMx55JG4DXBJS-50" value="" style="edgeStyle=segmentEdgeStyle;endArrow=classic;html=1;exitX=1;exitY=0.5;exitDx=0;exitDy=0;entryX=0.5;entryY=0;entryDx=0;entryDy=0;" edge="1" parent="1" source="-mlGXoupMx55JG4DXBJS-48" target="-mlGXoupMx55JG4DXBJS-49">
          <mxGeometry width="50" height="50" relative="1" as="geometry">
            <mxPoint x="2330" y="569.9999999999999" as="sourcePoint" />
            <mxPoint x="2455" y="660" as="targetPoint" />
          </mxGeometry>
        </mxCell>
        <mxCell id="-mlGXoupMx55JG4DXBJS-51" value="" style="edgeStyle=elbowEdgeStyle;elbow=vertical;endArrow=classic;html=1;exitX=0.5;exitY=1;exitDx=0;exitDy=0;" edge="1" parent="1" source="-mlGXoupMx55JG4DXBJS-49">
          <mxGeometry width="50" height="50" relative="1" as="geometry">
            <mxPoint x="2310" y="728.9999999999999" as="sourcePoint" />
            <mxPoint x="2490" y="790" as="targetPoint" />
            <Array as="points">
              <mxPoint x="2420" y="760" />
            </Array>
          </mxGeometry>
        </mxCell>
        <mxCell id="-mlGXoupMx55JG4DXBJS-55" value="&lt;font style=&quot;font-size: 15px&quot;&gt;Yes&lt;/font&gt;" style="text;html=1;strokeColor=#666666;fillColor=#f5f5f5;align=center;verticalAlign=middle;whiteSpace=wrap;rounded=0;fontColor=#333333;" vertex="1" parent="1">
          <mxGeometry x="2290" y="540" width="40" height="30" as="geometry" />
        </mxCell>
        <mxCell id="-mlGXoupMx55JG4DXBJS-56" value="&lt;font style=&quot;font-size: 15px&quot;&gt;Yes&lt;/font&gt;" style="text;html=1;strokeColor=#666666;fillColor=#f5f5f5;align=center;verticalAlign=middle;whiteSpace=wrap;rounded=0;fontColor=#333333;" vertex="1" parent="1">
          <mxGeometry x="2391" y="719.5" width="40" height="30" as="geometry" />
        </mxCell>
        <mxCell id="-mlGXoupMx55JG4DXBJS-57" value="&lt;font&gt;&lt;span style=&quot;font-size: 20px&quot;&gt;CPU High &amp;amp;&amp;nbsp;&lt;/span&gt;&lt;span style=&quot;font-size: 20px&quot;&gt;Lag Growth Rate&amp;nbsp;&lt;/span&gt;&lt;span style=&quot;font-size: 20px&quot;&gt;&amp;amp;&lt;/span&gt;&lt;br&gt;&lt;span style=&quot;color: rgb(23 , 43 , 77) ; background-color: rgb(255 , 255 , 255)&quot;&gt;&lt;font style=&quot;font-size: 20px&quot;&gt;Cgroup Throttle?&lt;/font&gt;&lt;/span&gt;&lt;br&gt;&lt;/font&gt;" style="rounded=1;whiteSpace=wrap;html=1;" vertex="1" parent="1">
          <mxGeometry x="2320" y="789" width="330" height="90" as="geometry" />
        </mxCell>
        <mxCell id="-mlGXoupMx55JG4DXBJS-58" value="" style="edgeStyle=elbowEdgeStyle;elbow=vertical;endArrow=classic;html=1;entryX=0.5;entryY=0;entryDx=0;entryDy=0;" edge="1" parent="1" source="-mlGXoupMx55JG4DXBJS-49" target="-mlGXoupMx55JG4DXBJS-60">
          <mxGeometry width="50" height="50" relative="1" as="geometry">
            <mxPoint x="2109.9999999999995" y="719.5" as="sourcePoint" />
            <mxPoint x="2160" y="790" as="targetPoint" />
            <Array as="points">
              <mxPoint x="2345" y="760" />
            </Array>
          </mxGeometry>
        </mxCell>
        <mxCell id="-mlGXoupMx55JG4DXBJS-59" value="&lt;span style=&quot;color: rgb(24 , 32 , 38) ; background-color: rgb(255 , 255 , 255)&quot;&gt;&lt;font style=&quot;font-size: 20px&quot;&gt;Increase&lt;/font&gt;&lt;font style=&quot;font-size: 14px&quot;&gt;&amp;nbsp;&lt;/font&gt;&lt;/span&gt;&lt;span style=&quot;font-size: 20px&quot;&gt;Parallelism&lt;/span&gt;" style="rounded=1;whiteSpace=wrap;html=1;" vertex="1" parent="1">
          <mxGeometry x="390" y="570" width="210" height="60" as="geometry" />
        </mxCell>
        <mxCell id="-mlGXoupMx55JG4DXBJS-60" value="&lt;span style=&quot;color: rgb(24 , 32 , 38) ; background-color: rgb(255 , 255 , 255)&quot;&gt;&lt;font style=&quot;font-size: 20px&quot;&gt;Increase&lt;/font&gt;&lt;font style=&quot;font-size: 14px&quot;&gt;&amp;nbsp;&lt;/font&gt;&lt;font style=&quot;font-size: 20px&quot;&gt;Vcores&lt;/font&gt;&lt;/span&gt;" style="rounded=1;whiteSpace=wrap;html=1;" vertex="1" parent="1">
          <mxGeometry x="2080" y="789" width="210" height="60" as="geometry" />
        </mxCell>
        <mxCell id="-mlGXoupMx55JG4DXBJS-62" value="&lt;font style=&quot;font-size: 15px&quot;&gt;No&lt;/font&gt;" style="text;html=1;strokeColor=#666666;fillColor=#f5f5f5;align=center;verticalAlign=middle;whiteSpace=wrap;rounded=0;fontColor=#333333;" vertex="1" parent="1">
          <mxGeometry x="2260" y="719.5" width="40" height="30" as="geometry" />
        </mxCell>
        <mxCell id="-mlGXoupMx55JG4DXBJS-64" value="场景3" style="ellipse;whiteSpace=wrap;html=1;aspect=fixed;fillColor=#fff2cc;strokeColor=#d6b656;" vertex="1" parent="1">
          <mxGeometry x="2020" y="794.5" width="49" height="49" as="geometry" />
        </mxCell>
        <mxCell id="-mlGXoupMx55JG4DXBJS-65" value="&lt;font style=&quot;font-size: 20px&quot;&gt;CPU Low &amp;amp;&amp;nbsp;&lt;/font&gt;&lt;span style=&quot;font-size: 20px&quot;&gt;Lag Growth Rate?&lt;/span&gt;" style="rounded=1;whiteSpace=wrap;html=1;" vertex="1" parent="1">
          <mxGeometry x="1510" y="550" width="290" height="60" as="geometry" />
        </mxCell>
        <mxCell id="-mlGXoupMx55JG4DXBJS-70" value="" style="group" vertex="1" connectable="0" parent="1">
          <mxGeometry x="1550" y="650" width="207.5" height="125" as="geometry" />
        </mxCell>
        <mxCell id="-mlGXoupMx55JG4DXBJS-68" value="&lt;span style=&quot;font-size: 20px&quot;&gt;Thread Dump&lt;/span&gt;" style="rounded=1;whiteSpace=wrap;html=1;" vertex="1" parent="-mlGXoupMx55JG4DXBJS-70">
          <mxGeometry x="18.75" width="170" height="60" as="geometry" />
        </mxCell>
        <mxCell id="-mlGXoupMx55JG4DXBJS-69" value="&lt;div&gt;&lt;span style=&quot;font-size: 20px&quot;&gt;Single CPU Hotspot?&lt;/span&gt;&lt;/div&gt;" style="rounded=1;whiteSpace=wrap;html=1;" vertex="1" parent="-mlGXoupMx55JG4DXBJS-70">
          <mxGeometry y="65" width="207.5" height="60" as="geometry" />
        </mxCell>
        <mxCell id="-mlGXoupMx55JG4DXBJS-71" value="" style="endArrow=classic;html=1;exitX=0.5;exitY=1;exitDx=0;exitDy=0;" edge="1" parent="1" source="-mlGXoupMx55JG4DXBJS-65" target="-mlGXoupMx55JG4DXBJS-68">
          <mxGeometry width="50" height="50" relative="1" as="geometry">
            <mxPoint x="1170" y="932" as="sourcePoint" />
            <mxPoint x="1170" y="982" as="targetPoint" />
          </mxGeometry>
        </mxCell>
        <mxCell id="-mlGXoupMx55JG4DXBJS-72" value="&lt;span style=&quot;color: rgb(24 , 32 , 38) ; background-color: rgb(255 , 255 , 255)&quot;&gt;&lt;font style=&quot;font-size: 20px&quot;&gt;Increase&lt;/font&gt;&lt;/span&gt;&lt;span style=&quot;color: rgb(24 , 32 , 38) ; font-size: 14px ; background-color: rgb(255 , 255 , 255)&quot;&gt;&amp;nbsp;&lt;/span&gt;&lt;span style=&quot;font-size: 20px&quot;&gt;Parallelism &amp;amp;&amp;nbsp;&lt;br&gt;&lt;/span&gt;&lt;font style=&quot;font-size: 20px&quot;&gt;VCoves&amp;nbsp;&lt;/font&gt;&lt;span style=&quot;font-size: 20px&quot;&gt;&lt;font style=&quot;font-size: 20px&quot;&gt;Cut In Half&lt;/font&gt;&lt;br&gt;&lt;/span&gt;" style="rounded=1;whiteSpace=wrap;html=1;" vertex="1" parent="1">
          <mxGeometry x="770" y="825.5" width="260" height="80" as="geometry" />
        </mxCell>
        <mxCell id="-mlGXoupMx55JG4DXBJS-74" value="" style="endArrow=classic;html=1;exitX=0.5;exitY=1;exitDx=0;exitDy=0;entryX=0.5;entryY=0;entryDx=0;entryDy=0;" edge="1" parent="1" source="-mlGXoupMx55JG4DXBJS-69" target="-mlGXoupMx55JG4DXBJS-76">
          <mxGeometry width="50" height="50" relative="1" as="geometry">
            <mxPoint x="1500" y="789" as="sourcePoint" />
            <mxPoint x="1654" y="820" as="targetPoint" />
          </mxGeometry>
        </mxCell>
        <mxCell id="-mlGXoupMx55JG4DXBJS-75" value="&lt;font style=&quot;font-size: 15px&quot;&gt;Yes&lt;/font&gt;" style="text;html=1;strokeColor=#666666;fillColor=#f5f5f5;align=center;verticalAlign=middle;whiteSpace=wrap;rounded=0;fontColor=#333333;" vertex="1" parent="1">
          <mxGeometry x="1600" y="783" width="40" height="30" as="geometry" />
        </mxCell>
        <mxCell id="-mlGXoupMx55JG4DXBJS-76" value="&lt;span style=&quot;color: rgb(24 , 32 , 38) ; background-color: rgb(255 , 255 , 255)&quot;&gt;&lt;font style=&quot;font-size: 20px&quot;&gt;Increase&lt;/font&gt;&lt;/span&gt;&lt;span style=&quot;color: rgb(24 , 32 , 38) ; font-size: 14px ; background-color: rgb(255 , 255 , 255)&quot;&gt;&amp;nbsp;&lt;/span&gt;&lt;span style=&quot;font-size: 20px&quot;&gt;Parallelism &amp;amp;&amp;nbsp;&lt;br&gt;&lt;/span&gt;&lt;font style=&quot;font-size: 20px&quot;&gt;VCoves&amp;nbsp;&lt;/font&gt;&lt;span style=&quot;font-size: 20px&quot;&gt;&lt;font style=&quot;font-size: 20px&quot;&gt;Cut In Half&lt;/font&gt;&lt;br&gt;&lt;/span&gt;" style="rounded=1;whiteSpace=wrap;html=1;" vertex="1" parent="1">
          <mxGeometry x="1523.75" y="822" width="260" height="80" as="geometry" />
        </mxCell>
        <mxCell id="-mlGXoupMx55JG4DXBJS-77" value="&lt;span style=&quot;color: rgb(24 , 32 , 38) ; background-color: rgb(255 , 255 , 255)&quot;&gt;&lt;font style=&quot;font-size: 20px&quot;&gt;Increase&lt;/font&gt;&lt;font style=&quot;font-size: 14px&quot;&gt;&amp;nbsp;&lt;/font&gt;&lt;/span&gt;&lt;span style=&quot;font-size: 20px&quot;&gt;Parallelism&lt;/span&gt;" style="rounded=1;whiteSpace=wrap;html=1;" vertex="1" parent="1">
          <mxGeometry x="1820" y="654" width="210" height="60" as="geometry" />
        </mxCell>
        <mxCell id="-mlGXoupMx55JG4DXBJS-78" value="场景1" style="ellipse;whiteSpace=wrap;html=1;aspect=fixed;fillColor=#fff2cc;strokeColor=#d6b656;" vertex="1" parent="1">
          <mxGeometry x="1460" y="837.5" width="49" height="49" as="geometry" />
        </mxCell>
        <mxCell id="-mlGXoupMx55JG4DXBJS-79" value="" style="edgeStyle=segmentEdgeStyle;endArrow=classic;html=1;exitX=0;exitY=0.5;exitDx=0;exitDy=0;" edge="1" parent="1" source="-mlGXoupMx55JG4DXBJS-48" target="-mlGXoupMx55JG4DXBJS-77">
          <mxGeometry width="50" height="50" relative="1" as="geometry">
            <mxPoint x="1920" y="564" as="sourcePoint" />
            <mxPoint x="1865" y="654" as="targetPoint" />
          </mxGeometry>
        </mxCell>
        <mxCell id="-mlGXoupMx55JG4DXBJS-80" value="场景2" style="ellipse;whiteSpace=wrap;html=1;aspect=fixed;fillColor=#fff2cc;strokeColor=#d6b656;" vertex="1" parent="1">
          <mxGeometry x="2050" y="659.5" width="49" height="49" as="geometry" />
        </mxCell>
        <mxCell id="-mlGXoupMx55JG4DXBJS-81" value="&lt;font style=&quot;font-size: 15px&quot;&gt;No&lt;/font&gt;" style="text;html=1;strokeColor=#666666;fillColor=#f5f5f5;align=center;verticalAlign=middle;whiteSpace=wrap;rounded=0;fontColor=#333333;" vertex="1" parent="1">
          <mxGeometry x="1920" y="539" width="40" height="30" as="geometry" />
        </mxCell>
        <mxCell id="-mlGXoupMx55JG4DXBJS-82" value="&lt;font style=&quot;font-size: 15px&quot;&gt;Yes&lt;/font&gt;" style="text;html=1;strokeColor=#666666;fillColor=#f5f5f5;align=center;verticalAlign=middle;whiteSpace=wrap;rounded=0;fontColor=#333333;" vertex="1" parent="1">
          <mxGeometry x="1670" y="615" width="40" height="30" as="geometry" />
        </mxCell>
        <mxCell id="-mlGXoupMx55JG4DXBJS-84" value="" style="endArrow=classic;html=1;exitX=0.5;exitY=1;exitDx=0;exitDy=0;" edge="1" parent="1" source="-mlGXoupMx55JG4DXBJS-77">
          <mxGeometry width="50" height="50" relative="1" as="geometry">
            <mxPoint x="1925" y="714" as="sourcePoint" />
            <mxPoint x="1925" y="940" as="targetPoint" />
          </mxGeometry>
        </mxCell>
        <mxCell id="-mlGXoupMx55JG4DXBJS-85" value="" style="endArrow=classic;html=1;exitX=0.5;exitY=1;exitDx=0;exitDy=0;" edge="1" parent="1" source="-mlGXoupMx55JG4DXBJS-60">
          <mxGeometry width="50" height="50" relative="1" as="geometry">
            <mxPoint x="2220" y="970" as="sourcePoint" />
            <mxPoint x="2185" y="940" as="targetPoint" />
          </mxGeometry>
        </mxCell>
        <mxCell id="-mlGXoupMx55JG4DXBJS-86" value="" style="edgeStyle=segmentEdgeStyle;endArrow=none;html=1;endFill=0;exitX=0.5;exitY=1;exitDx=0;exitDy=0;" edge="1" parent="1" source="-mlGXoupMx55JG4DXBJS-31">
          <mxGeometry width="50" height="50" relative="1" as="geometry">
            <mxPoint x="2840" y="940" as="sourcePoint" />
            <mxPoint x="1430" y="940" as="targetPoint" />
            <Array as="points">
              <mxPoint x="2830" y="940" />
            </Array>
          </mxGeometry>
        </mxCell>
        <mxCell id="-mlGXoupMx55JG4DXBJS-87" value="&lt;font style=&quot;font-size: 15px&quot;&gt;No&lt;/font&gt;" style="text;html=1;strokeColor=#666666;fillColor=#f5f5f5;align=center;verticalAlign=middle;whiteSpace=wrap;rounded=0;fontColor=#333333;" vertex="1" parent="1">
          <mxGeometry x="2500" y="891" width="40" height="30" as="geometry" />
        </mxCell>
        <mxCell id="-mlGXoupMx55JG4DXBJS-91" value="" style="edgeStyle=segmentEdgeStyle;endArrow=classic;html=1;entryX=0;entryY=0.5;entryDx=0;entryDy=0;" edge="1" parent="1" target="-mlGXoupMx55JG4DXBJS-42">
          <mxGeometry width="50" height="50" relative="1" as="geometry">
            <mxPoint x="1430" y="940" as="sourcePoint" />
            <mxPoint x="1560" y="380" as="targetPoint" />
            <Array as="points">
              <mxPoint x="1430" y="275" />
            </Array>
          </mxGeometry>
        </mxCell>
        <mxCell id="-mlGXoupMx55JG4DXBJS-92" value="" style="endArrow=classic;html=1;exitX=0.5;exitY=1;exitDx=0;exitDy=0;" edge="1" parent="1" source="-mlGXoupMx55JG4DXBJS-76">
          <mxGeometry width="50" height="50" relative="1" as="geometry">
            <mxPoint x="1660" y="1020" as="sourcePoint" />
            <mxPoint x="1654" y="940" as="targetPoint" />
          </mxGeometry>
        </mxCell>
        <mxCell id="-mlGXoupMx55JG4DXBJS-93" value="" style="endArrow=classic;html=1;exitX=0;exitY=0.5;exitDx=0;exitDy=0;" edge="1" parent="1" source="-mlGXoupMx55JG4DXBJS-69">
          <mxGeometry width="50" height="50" relative="1" as="geometry">
            <mxPoint x="1663.75" y="912" as="sourcePoint" />
            <mxPoint x="1430" y="745" as="targetPoint" />
          </mxGeometry>
        </mxCell>
        <mxCell id="-mlGXoupMx55JG4DXBJS-94" value="&lt;font style=&quot;font-size: 15px&quot;&gt;No&lt;/font&gt;" style="text;html=1;strokeColor=#666666;fillColor=#f5f5f5;align=center;verticalAlign=middle;whiteSpace=wrap;rounded=0;fontColor=#333333;" vertex="1" parent="1">
          <mxGeometry x="1480" y="710" width="40" height="30" as="geometry" />
        </mxCell>
        <mxCell id="-mlGXoupMx55JG4DXBJS-95" value="" style="endArrow=classic;html=1;exitX=0;exitY=0.5;exitDx=0;exitDy=0;" edge="1" parent="1" source="-mlGXoupMx55JG4DXBJS-65">
          <mxGeometry width="50" height="50" relative="1" as="geometry">
            <mxPoint x="1560" y="755" as="sourcePoint" />
            <mxPoint x="1430" y="580" as="targetPoint" />
          </mxGeometry>
        </mxCell>
        <mxCell id="-mlGXoupMx55JG4DXBJS-96" value="&lt;font style=&quot;font-size: 15px&quot;&gt;No&lt;/font&gt;" style="text;html=1;strokeColor=#666666;fillColor=#f5f5f5;align=center;verticalAlign=middle;whiteSpace=wrap;rounded=0;fontColor=#333333;" vertex="1" parent="1">
          <mxGeometry x="1450" y="535" width="40" height="30" as="geometry" />
        </mxCell>
        <mxCell id="-mlGXoupMx55JG4DXBJS-97" value="" style="endArrow=classic;html=1;exitX=0;exitY=0.5;exitDx=0;exitDy=0;" edge="1" parent="1" source="-mlGXoupMx55JG4DXBJS-43">
          <mxGeometry width="50" height="50" relative="1" as="geometry">
            <mxPoint x="1560" y="755" as="sourcePoint" />
            <mxPoint x="1430" y="415" as="targetPoint" />
          </mxGeometry>
        </mxCell>
        <mxCell id="-mlGXoupMx55JG4DXBJS-98" value="&lt;font style=&quot;font-size: 15px&quot;&gt;No&lt;/font&gt;" style="text;html=1;strokeColor=#666666;fillColor=#f5f5f5;align=center;verticalAlign=middle;whiteSpace=wrap;rounded=0;fontColor=#333333;" vertex="1" parent="1">
          <mxGeometry x="1540" y="380" width="40" height="30" as="geometry" />
        </mxCell>
        <mxCell id="-mlGXoupMx55JG4DXBJS-99" value="" style="endArrow=classic;html=1;exitX=0.5;exitY=1;exitDx=0;exitDy=0;" edge="1" parent="1" source="-mlGXoupMx55JG4DXBJS-57">
          <mxGeometry width="50" height="50" relative="1" as="geometry">
            <mxPoint x="2510" y="1010" as="sourcePoint" />
            <mxPoint x="2485" y="940" as="targetPoint" />
          </mxGeometry>
        </mxCell>
        <mxCell id="-mlGXoupMx55JG4DXBJS-100" value="&lt;font style=&quot;font-size: 15px&quot;&gt;Yes&lt;/font&gt;" style="text;html=1;strokeColor=#666666;fillColor=#f5f5f5;align=center;verticalAlign=middle;whiteSpace=wrap;rounded=0;fontColor=#333333;" vertex="1" parent="1">
          <mxGeometry x="1940" y="465" width="40" height="30" as="geometry" />
        </mxCell>
        <mxCell id="-mlGXoupMx55JG4DXBJS-101" value="&lt;font style=&quot;font-size: 15px&quot;&gt;No&lt;/font&gt;" style="text;html=1;strokeColor=#666666;fillColor=#f5f5f5;align=center;verticalAlign=middle;whiteSpace=wrap;rounded=0;fontColor=#333333;" vertex="1" parent="1">
          <mxGeometry x="1710" y="465" width="40" height="30" as="geometry" />
        </mxCell>
        <mxCell id="-mlGXoupMx55JG4DXBJS-102" value="&lt;font style=&quot;font-size: 15px&quot;&gt;No&lt;/font&gt;" style="text;html=1;strokeColor=#666666;fillColor=#f5f5f5;align=center;verticalAlign=middle;whiteSpace=wrap;rounded=0;fontColor=#333333;" vertex="1" parent="1">
          <mxGeometry x="1860" y="326" width="40" height="30" as="geometry" />
        </mxCell>
      </root>
    </mxGraphModel>
  </diagram>
</mxfile>
